<svg xmlns="http://www.w3.org/2000/svg" width="870" height="520" viewBox="0 0 870 520">
  <g id="Group_170" data-name="Group 170" transform="translate(-6316 1388)">
    <path id="Path_67807" data-name="Path 67807" d="M831.092,704.187c-11.138-9.412-17.9-24.28-16.13-38.754s12.764-27.78,27.018-30.854,30.5,5.435,34.834,19.359c2.383-26.846,5.129-54.818,19.4-77.68,12.924-20.7,35.309-35.514,59.569-38.164s49.8,7.359,64.933,26.507,18.835,46.985,8.238,68.969c-7.806,16.195-22.188,28.247-37.257,38.052A240.451,240.451,0,0,1,827.245,707.6Z" transform="translate(6151 -1578.03)" fill="#f2f2f2"/>
    <path id="Path_67808" data-name="Path 67808" d="M996.728,546.01A396.755,396.755,0,0,0,880.15,703.646c-1.112,2.725,3.313,3.911,4.412,1.216a392.343,392.343,0,0,1,115.4-155.618c2.284-1.86-.97-5.08-3.236-3.235Z" transform="translate(6151 -1578.03)" fill="#fff"/>
    <path id="Path_67809" data-name="Path 67809" d="M445.067,701.63c15.3-12.927,24.591-33.348,22.154-53.228s-17.531-38.156-37.11-42.378-41.9,7.464-47.844,26.59c-3.273-36.873-7.044-75.292-26.648-106.693-17.751-28.433-48.5-48.778-81.818-52.418s-68.4,10.107-89.185,36.407S158.747,574.445,173.3,604.64c10.722,22.243,30.475,38.8,51.172,52.264,66.029,42.965,147.939,60.884,225.877,49.414" transform="translate(6151 -1578.03)" fill="#f2f2f2"/>
    <path id="Path_67810" data-name="Path 67810" d="M217.567,484.373a540.35,540.35,0,0,1,75.3,74.777,548.077,548.077,0,0,1,59.386,87.891,545.843,545.843,0,0,1,25.43,53.846c1.527,3.743-4.55,5.372-6.06,1.671a536.355,536.355,0,0,0-49.009-92.727,539.729,539.729,0,0,0-65.729-81.2,538.459,538.459,0,0,0-43.766-39.815c-3.138-2.555,1.332-6.978,4.444-4.444Z" transform="translate(6151 -1578.03)" fill="#fff"/>
    <path id="Path_67811" data-name="Path 67811" d="M789.5,708.832h-365V334.4c0-79.663,64.822-144.472,144.5-144.472h76c79.677,0,144.5,64.81,144.5,144.472Z" transform="translate(6151 -1577.931)" fill="#f2f2f2"/>
    <path id="Path_67812" data-name="Path 67812" d="M713.5,708.832h-289V334.4a143.336,143.336,0,0,1,27.6-84.928c.664-.9,1.326-1.8,2.009-2.681a144.454,144.454,0,0,1,30.754-29.845c.66-.48,1.322-.951,1.994-1.423a144.167,144.167,0,0,1,31.472-16.456c.661-.25,1.334-.5,2.007-.742a144.044,144.044,0,0,1,31.108-7.335c.658-.09,1.333-.16,2.008-.23a146.316,146.316,0,0,1,31.105,0c.673.07,1.349.141,2.014.231a144.015,144.015,0,0,1,31.1,7.334c.673.241,1.346.492,2.009.743a143.809,143.809,0,0,1,31.106,16.213c.672.461,1.344.933,2.006,1.4a145.984,145.984,0,0,1,18.383,15.561A144.271,144.271,0,0,1,683.9,246.8c.681.88,1.343,1.773,2.005,2.676a143.336,143.336,0,0,1,27.6,84.93Z" transform="translate(6151 -1577.931)" fill="#ccc"/>
    <circle id="Ellipse_9" data-name="Ellipse 9" cx="16" cy="16" r="16" transform="translate(6825 -1068.565)" fill="#1492e6"/>
    <path id="Path_67813" data-name="Path 67813" d="M594.6,507.783h-12.26l-5.833-47.288h18.1Z" transform="translate(6316 -1388.099)" fill="#ffb8b8"/>
    <path id="Path_67814" data-name="Path 67814" d="M573.582,504.28h23.644v14.887H558.7a14.887,14.887,0,0,1,14.887-14.887Z" transform="translate(6316 -1388.099)" fill="#2f2e41"/>
    <path id="Path_67815" data-name="Path 67815" d="M655.6,507.783h-12.26l-5.833-47.288h18.1Z" transform="translate(6316 -1388.099)" fill="#ffb8b8"/>
    <path id="Path_67816" data-name="Path 67816" d="M634.582,504.28h23.644v14.887H619.7a14.887,14.887,0,0,1,14.887-14.887Z" transform="translate(6316 -1388.099)" fill="#2f2e41"/>
    <path id="Path_67817" data-name="Path 67817" d="M698.1,528.6a10.743,10.743,0,0,1,4.51-15.843L744.284,397.89l20.507,11.192L717.206,518.853A10.8,10.8,0,0,1,698.1,528.6Z" transform="translate(6151 -1577.985)" fill="#ffb8b8"/>
    <path id="Path_67818" data-name="Path 67818" d="M814.336,550.184a10.743,10.743,0,0,1-2.893-16.217l-12.91-121.509,23.338,1.066,5.365,119.521a10.8,10.8,0,0,1-12.9,17.139Z" transform="translate(6151 -1577.989)" fill="#ffb8b8"/>
    <circle id="Ellipse_10" data-name="Ellipse 10" cx="24.561" cy="24.561" r="24.561" transform="translate(6903.545 -1250.467)" fill="#ffb8b8"/>
    <path id="Path_67819" data-name="Path 67819" d="M814.18,522.549H740.133l.089-.576c.133-.861,13.2-86.439,3.562-114.436a11.813,11.813,0,0,1,6.069-14.583h0c13.772-6.485,40.208-14.471,62.52,4.909a28.235,28.235,0,0,1,9.459,23.4Z" transform="translate(6151 -1577.982)" fill="#1492e6"/>
    <path id="Path_67820" data-name="Path 67820" d="M754.354,448.181l-33.336-6.763,15.626-37.03a14,14,0,1,1,27.106,7Z" transform="translate(6151 -1577.974)" fill="#1492e6"/>
    <path id="Path_67821" data-name="Path 67821" d="M797.05,460.739l-2-45.941c-1.52-8.636,3.424-16.8,11.027-18.135s15.032,4.66,16.558,13.36l7.533,42.928Z" transform="translate(6151 -1577.976)" fill="#1492e6"/>
    <path id="Path_67822" data-name="Path 67822" d="M811.716,517.049c11.914,45.377,13.214,103.069,10,166l-16-2-29-120-16,122-18-1c-5.377-66.03-10.613-122.715-2-160Z" transform="translate(6151 -1578.03)" fill="#2f2e41"/>
    <path id="Path_67823" data-name="Path 67823" d="M793.289,371.035c-4.582,4.881-13.091,2.261-13.688-4.407a8.049,8.049,0,0,1,.01-1.556c.308-2.954,2.015-5.635,1.606-8.754a4.59,4.59,0,0,0-.84-2.149c-3.651-4.889-12.222,2.187-15.668-2.239-2.113-2.714.371-6.987-1.251-10.021-2.14-4-8.479-2.029-12.454-4.221-4.423-2.439-4.158-9.225-1.247-13.353,3.551-5.034,9.776-7.72,15.923-8.107s12.253,1.275,17.992,3.511c6.521,2.541,12.988,6.053,17,11.788,4.88,6.973,5.35,16.348,2.909,24.5C802.1,360.99,797.031,367.049,793.289,371.035Z" transform="translate(6151 -1577.958)" fill="#2f2e41"/>
    <path id="Path_67824" data-name="Path 67824" d="M1004.98,709.574H266.686a1.191,1.191,0,1,1,0-2.381H1004.98a1.191,1.191,0,1,1,0,2.381Z" transform="translate(6151 -1578.03)" fill="#3f3d56"/>
    <path id="Path_67825" data-name="Path 67825" d="M634,600.431H504a6.465,6.465,0,0,1-6.5-6.415V303.846a6.465,6.465,0,0,1,6.5-6.415H634a6.465,6.465,0,0,1,6.5,6.415V594.015A6.465,6.465,0,0,1,634,600.431Z" transform="translate(6151 -1577.98)" fill="#fff"/>
    <rect id="Rectangle_55" data-name="Rectangle 55" width="143" height="2" transform="translate(6648.5 -1186.649)" fill="#ccc"/>
    <rect id="Rectangle_56" data-name="Rectangle 56" width="143" height="2" transform="translate(6649 -1072.561)" fill="#ccc"/>
    <rect id="Rectangle_57" data-name="Rectangle 57" width="2" height="304" transform="translate(6693.5 -1280.549)" fill="#ccc"/>
    <rect id="Rectangle_58" data-name="Rectangle 58" width="2" height="304" transform="translate(6743.5 -1280.549)" fill="#ccc"/>
  </g>
</svg>
