<svg xmlns="http://www.w3.org/2000/svg" width="23" height="20" viewBox="0 0 23 20">
  <g id="Group_179" data-name="Group 179" transform="translate(-1076 -563.5)">
    <path id="vector_Stroke_" data-name="vector (Stroke)" d="M2.977,4.25A6.287,6.287,0,0,1,7.4,2.75H18.1a6.287,6.287,0,0,1,4.424,1.5A6.2,6.2,0,0,1,24.25,8.966v7.568a6.2,6.2,0,0,1-1.727,4.716,6.287,6.287,0,0,1-4.424,1.5H7.4a6.287,6.287,0,0,1-4.424-1.5A6.2,6.2,0,0,1,1.25,16.534V8.966A6.2,6.2,0,0,1,2.977,4.25Z" transform="translate(1074.75 560.75)" fill="#1492e6" fill-rule="evenodd"/>
    <path id="vector_Stroke__2" data-name="vector (Stroke)_2" d="M18.947,7.4a1.2,1.2,0,0,1-.131,1.365l-5.392,5.561a2.166,2.166,0,0,1-3.269,0L4.763,8.762A1.2,1.2,0,0,1,4.632,7.4a.616.616,0,0,1,1.023-.175l5.392,5.561a.984.984,0,0,0,1.486,0l5.392-5.561A.616.616,0,0,1,18.947,7.4Z" transform="translate(1075.71 560.63)" fill="#fff" fill-rule="evenodd"/>
  </g>
</svg>
