<svg xmlns="http://www.w3.org/2000/svg" width="29.663" height="27" viewBox="0 0 29.663 27">
  <path id="visibility_off_FILL0_wght400_GRAD0_opsz48" d="M59.854-849.966l-1.483-1.483a3.344,3.344,0,0,0-.91-3.978,3.6,3.6,0,0,0-3.876-.809L52.1-857.719a4.076,4.076,0,0,1,1.281-.539,6.239,6.239,0,0,1,1.449-.168,5.528,5.528,0,0,1,4.062,1.669,5.528,5.528,0,0,1,1.669,4.062,5.894,5.894,0,0,1-.185,1.466A4.454,4.454,0,0,1,59.854-849.966Zm4.348,4.348-1.348-1.348a15.812,15.812,0,0,0,2.882-2.714,10.832,10.832,0,0,0,1.8-3.017,13.455,13.455,0,0,0-5.056-5.916,13.236,13.236,0,0,0-7.315-2.174,16.186,16.186,0,0,0-2.9.27,10.744,10.744,0,0,0-2.326.64l-1.551-1.584a15.279,15.279,0,0,1,3.017-.944,16.669,16.669,0,0,1,3.59-.4,15.218,15.218,0,0,1,8.815,2.747,15.929,15.929,0,0,1,5.848,7.365,16.65,16.65,0,0,1-2.258,3.944A16.281,16.281,0,0,1,64.2-845.618ZM66.157-838l-5.663-5.562a13.093,13.093,0,0,1-2.663.725,17.818,17.818,0,0,1-3,.253,15.455,15.455,0,0,1-8.933-2.747A16.1,16.1,0,0,1,40-852.7a15.3,15.3,0,0,1,1.871-3.421,19.158,19.158,0,0,1,2.916-3.185l-4.247-4.247L41.955-865l25.517,25.517ZM46.169-857.888a12.406,12.406,0,0,0-2.41,2.393,11.1,11.1,0,0,0-1.669,2.8,13.5,13.5,0,0,0,5.174,5.916,14.4,14.4,0,0,0,7.837,2.174,17.657,17.657,0,0,0,2.191-.135,5.236,5.236,0,0,0,1.618-.4L56.753-847.3a3.529,3.529,0,0,1-.91.253,6.573,6.573,0,0,1-1.011.084,5.574,5.574,0,0,1-4.045-1.652A5.485,5.485,0,0,1,49.1-852.7a6.141,6.141,0,0,1,.084-1.011,4.127,4.127,0,0,1,.253-.91ZM56.449-853.1ZM52.539-851.146Z" transform="translate(-40 865)"/>
</svg>
